# xmcd CD database file
#
# Track frame offsets:
#	150
#	20305
#	43797
#	58485
#	69580
#	88527
#	118025
#	129727
#	146807
#	160272
#	180502
#	196457
#	213937
#	228392
#	267150
#
# Disc length: 3772 seconds
#
# Revision: 1
# Processed by: cddbd v1.4PL0 Copyright (c) Steve Scherf et al.
# Submitted via: NeoAudio 9.9.9
#
DISCID=de0eba0f
DTITLE=Various Artist - Salsa (Bande Originale du Film)
DYEAR=2000
DGENRE=Salsa
TTITLE0=Yuri Buenaventura - Salsa
TTITLE1=Sierra Maestra - Mi Música es Tu Música
TTITLE2=Sierra Maestra - Awe
TTITLE3=Ray Barretto - Do You Dig It
TTITLE4=Isidro Infante and La Elite - El Pito Así se Goza
TTITLE5=Poncho Sánchez - Bésame Máma
TTITLE6=Sierra Maestra - A Mi Manera
TTITLE7=Sierra Maestra - Semilla de Caña Brava
TTITLE8=Septeto Nacional Ignacio Piñeiro - El Son hay que Llevarlo en el Corazón
TTITLE9=El Orquesta Original de Manzanillo - A la Hora que Me Llamen Voy
TTITLE10=Chappottin y Sus Estrellas - Sazonando
TTITLE11=Sierra Maestra - El Guayabero
TTITLE12=Sierra Maestra - Dame un Traguito
TTITLE13=Ruben González - Mandinga
TTITLE14=Sergio Barretto - Ay Ay Ay María
EXTD=YEAR: 2000
EXTT0=
EXTT1=
EXTT2=
EXTT3=
EXTT4=
EXTT5=
EXTT6=
EXTT7=
EXTT8=
EXTT9=
EXTT10=
EXTT11=
EXTT12=
EXTT13=
EXTT14=
PLAYORDER=
